<svg class="our-clients-card-image-1" viewBox="0 0 253 67" fill="none" xmlns="http://www.w3.org/2000/svg">
<g clip-path="url(#clip0_329_4961)">
<path d="M239.571 47.9559H0.833984V0H252.834V34.6942L239.571 47.9559ZM3.14878 45.6304H238.632L250.519 33.6886V2.32552H3.14878V45.6304Z" fill="#EE3824"/>
<path d="M20.2275 37.3341H11.4062V10.6221H25.6078L20.2275 16.0273V37.3341ZM28.1103 10.6221H36.9941V37.3341H28.1729V16.0273H22.1669L27.5473 10.6221H28.1103ZM41.1858 37.3341V10.6221H55.1997L49.8819 16.0273V25.1408L56.3258 25.078L51.008 30.4204H49.8819V37.3341H41.1858Z" fill="#150958"/>
<path d="M51.7598 16.0273L57.1401 10.6221H61.1441L66.3993 16.0273V25.1408L61.1441 30.4204H52.8859L58.2037 25.1408V16.0273H51.7598ZM141.161 37.3341H132.653L142.099 11.8791L145.978 22.4382L141.161 37.3341ZM152.109 34.38H143.476L145.29 29.1005H150.107L143.038 10.6221H151.609L162.182 37.3341H153.298L152.109 34.38ZM163.996 16.0273V31.9917V15.9645V16.0273ZM189.709 21.4326V16.0273L184.454 10.6221H180.137L174.757 16.0273H180.95V21.684H174.194V26.2722H180.95V31.9917H174.757L169.376 37.3341H184.454L189.709 31.9917V26.7121L187.082 24.0724L189.709 21.4326Z" fill="#150958"/>
<path d="M172.817 31.9917V16.0273L178.197 10.6221H163.995V37.3341H167.436L172.817 31.9917ZM198.592 17.3472H207.726V37.3341H198.592V17.3472ZM89.6717 10.6221H85.4174L80.0371 16.0273H86.2308V31.9288L80.8504 37.3341H89.6717L94.9894 31.9917V16.0273L89.6717 10.6221Z" fill="#150958"/>
<path d="M83.2912 31.9288H78.1612V16.0273L83.4789 10.6221H74.6577L69.2773 16.0273V31.9917L74.6577 37.3341H78.9119L84.2922 31.9288H83.2912ZM236.881 10.6221H232.627L227.309 16.0273H233.44V31.9288L228.06 37.3341H236.881L242.261 31.9917V16.0273L236.881 10.6221Z" fill="#150958"/>
<path d="M230.562 31.9289H225.37V16.0274L230.75 10.6221H221.929L216.549 16.0274V31.9917L221.929 37.3341H226.121L231.501 31.9289H230.562ZM98.6816 37.3341H106.877V26.1465L98.6816 13.2619V37.3341ZM122.017 37.3341H130.839V10.6221H122.017V37.3341ZM115.135 22.0611L108.066 10.6221H98.6816L104.062 19.1699L112.883 32.9345H117.075L120.641 26.4608V13.0733L115.135 22.0611ZM210.417 10.6221H205.976L200.595 16.0274H212.92L214.296 14.6446L218.3 10.6221H210.417ZM195.277 10.6221H188.646L192.024 14.0161L193.964 16.0274H198.656L204.036 10.6221H195.277ZM247.392 9.86789L246.391 10.8107H242.887L241.886 9.86789V6.41104L242.887 5.46826H246.391L247.392 6.41104V9.86789ZM246.954 6.59959L246.203 5.90822H243.075L242.324 6.59959V9.61648L243.075 10.3078H246.203L246.954 9.61648V6.59959ZM246.015 7.91948L245.39 8.548H245.077L246.015 9.49078L245.64 9.86789L244.326 8.548H243.826V9.67933H243.325V6.53674H245.327L245.953 7.16526C246.015 7.16526 246.015 7.91948 246.015 7.91948ZM245.265 7.03956H243.888V8.04518H245.265L245.577 7.73093V7.35382L245.265 7.03956Z" fill="#150958"/>
<path d="M2.33461 57.8235V64.5487H1.70898V57.1322H6.83907V64.5487H6.08833V57.8235H2.33461ZM11.9692 61.7203V64.5487H11.281V57.1322H15.285L16.3485 58.2006V60.6519L15.285 61.7203H11.9692ZM14.9721 57.8235H11.9066V61.029H14.9721L15.6603 60.3376V58.5149L14.9721 57.8235ZM21.416 57.1322H24.4816L25.6703 58.2006V63.4173L24.4816 64.4858H21.416L20.2274 63.4802V58.2635L21.416 57.1322ZM24.9821 58.5149L24.1688 57.8235H21.6037L20.853 58.5149V63.1659L21.6037 63.8573H24.1688L24.9195 63.1659V58.5149H24.9821ZM34.3038 58.3263L30.6127 64.5487H29.8619V57.1322H30.5501V63.3545L34.2413 57.1322H34.992V64.5487H34.3038V58.3263ZM42.9999 59.7719V58.452L42.3743 57.8235H39.9344L38.996 58.1378L38.7457 57.5093L39.8093 57.1322H42.6246L43.6256 58.1378V60.0862L42.9374 60.7147L43.6881 61.4689V63.4173L42.6246 64.4858H39.6216L38.558 64.1087L38.8083 63.4802L39.7467 63.7944H42.3118L42.9999 63.1031V61.7203L42.3118 61.029H40.2472V60.3376H42.3743L42.9999 59.7719ZM52.2591 60.6519L53.0099 61.4061V63.4802L51.9463 64.5487H47.9424V57.1322H51.9463L52.8222 58.0121V60.0862L52.2591 60.6519ZM48.568 57.8235V60.3376H51.6335L52.0714 59.8976V58.3892L51.6335 57.8235H48.568ZM52.3217 61.6575L51.6335 60.9661H48.568V63.8573H51.6335L52.3217 63.1659V61.6575ZM58.14 57.1322H61.2055L62.3942 58.2006V63.4173L61.2055 64.4858H58.14L56.9513 63.4173V58.2006L58.14 57.1322ZM61.706 58.5149L60.8927 57.8235H58.3902L57.6395 58.5149V63.1659L58.3902 63.8573H60.8927L61.6434 63.1659V58.5149H61.706ZM72.279 63.8573V66.3085H71.5908V64.5487H66.273V66.3085H65.5849V63.8573H66.273L66.7735 62.9774L67.3992 57.1322H71.5283V63.8573H72.279ZM67.3992 63.2288L67.0238 63.8573H70.8401V57.8235H67.9622C67.8997 58.3263 67.8371 59.2063 67.712 60.3376C67.5243 61.5318 67.4617 62.4746 67.3992 63.2288ZM79.7239 63.8573L80.5372 63.0402L81.0377 63.543L80.0367 64.5487H76.9711L75.9076 63.4802V58.2635L76.9711 57.195H79.9116L80.9751 58.2635V59.4577H80.2869V58.5777L79.6613 57.8235H77.284L76.5958 58.5149V63.1659L77.284 63.8573H79.7239ZM87.0436 57.8235V64.5487H86.3555V57.8235H84.0407V57.1322H89.3584V57.8235H87.0436ZM97.3664 60.6519L98.1171 61.4061V63.4802L97.0536 64.5487H93.0496V57.1322H97.0536L97.9294 58.0121V60.0862L97.3664 60.6519ZM93.6752 57.8235V60.3376H96.7408L97.1787 59.8976V58.3892L96.7408 57.9492H93.6752V57.8235ZM97.4289 61.6575L96.7408 60.9661H93.6752V63.8573H96.7408L97.4289 63.1659V61.6575ZM103.247 57.1322H106.313L107.501 58.2006V63.4173L106.313 64.4858H103.247L102.059 63.4173V58.2006L103.247 57.1322ZM106.751 58.5149L106 57.8235H103.435L102.684 58.5149V63.1659L103.435 63.8573H106L106.751 63.1659V58.5149ZM121.265 63.8573L122.078 63.0402L122.579 63.543L121.578 64.5487H118.512L117.449 63.4802V58.2635L118.512 57.195H121.453L122.516 58.2635V59.4577H121.828V58.5777L121.14 57.8864H118.763L118.074 58.5777V63.2288L118.763 63.9201H121.265V63.8573ZM127.208 57.8235V64.5487H126.52V57.1322H131.65V64.5487H130.962V57.8235H127.208ZM136.092 64.5487V57.1322H140.659V57.8235H136.78V60.2747H140.221V60.9661H136.78V63.8573H140.659V64.5487H136.092ZM144.476 64.5487V57.195H145.164V63.9201H148.918V57.195H149.606V63.9201H150.482V66.3714H149.793V64.6115H144.476V64.5487ZM155.111 62.3489L154.36 64.6744L153.672 64.4858L156.05 57.195H157.051L159.428 64.4858L158.74 64.6744L157.989 62.3489H155.111ZM155.361 61.6575H157.739L156.55 57.9492L155.361 61.6575ZM167.561 60.6519L168.312 61.4061V63.4802L167.248 64.5487H163.244V57.1322H167.248L168.124 58.0121V60.0862L167.561 60.6519ZM163.87 57.8235V60.3376H166.935L167.373 59.8976V58.3892L166.935 57.9492H163.87V57.8235ZM167.624 61.6575L166.935 60.9661H163.87V63.8573H166.935L167.624 63.1659V61.6575ZM174.38 57.8235V64.5487H173.692V57.8235H171.377V57.1322H176.695V57.8235H174.38ZM181.137 57.1322H184.203L185.391 58.2006V63.4173L184.203 64.4858H181.137L179.948 63.4173V58.2006L181.137 57.1322ZM184.64 58.5149L183.89 57.8235H181.325L180.574 58.5149V63.1659L181.325 63.8573H183.89L184.64 63.1659V58.5149ZM193.462 62.7888H192.899L190.334 58.3892V64.5487H189.645V57.1322H190.396L193.211 61.9089L196.027 57.1322H196.778V64.5487H196.027V58.3892L193.462 62.7888ZM202.158 57.1322H205.223L206.412 58.2006V63.4173L205.223 64.4858H202.158L200.969 63.4173V58.2006L202.158 57.1322ZM205.724 58.5149L204.973 57.8235H202.408L201.657 58.5149V63.1659L202.408 63.8573H204.973L205.724 63.1659V58.5149ZM210.604 64.5487V57.1322H215.296V57.8235H211.292V60.149H214.67L215.734 61.2804V63.4802L214.67 64.6115H210.604V64.5487ZM215.046 61.5318L214.357 60.8404H211.292V63.8573H214.357L215.046 63.1659V61.5318ZM224.242 58.3263L220.551 64.5487H219.8V57.1322H220.489V63.3545L224.18 57.1322H224.93V64.5487H224.242V58.3263ZM234.628 57.1322V64.5487H233.939V57.8235H231.062L230.436 63.6059L229.748 64.2973L228.747 64.6115L228.559 63.983L229.372 63.7316L229.748 63.2916L230.436 57.1322H234.628ZM239.069 64.5487V57.1322H243.637V57.8235H239.758V60.2747H243.199V60.9661H239.758V63.8573H243.637V64.5487H239.069ZM251.957 58.3263L248.266 64.5487H247.515V57.1322H248.204V63.3545L251.895 57.1322H252.645V64.5487H251.957V58.3263ZM251.895 55.7494L251.269 56.3779H248.829L248.204 55.7494V54.8066H248.892V55.4352L249.142 55.6866H251.019L251.269 55.4352V54.8066H251.957V55.7494H251.895Z" fill="#150958"/>
</g>
<defs>
<clipPath id="clip0_329_4961">
<rect width="252" height="67" fill="white" transform="translate(0.833984)"/>
</clipPath>
</defs>
</svg>
