<svg width="40" height="40" viewBox="0 0 40 40" fill="none" xmlns="http://www.w3.org/2000/svg">
<rect width="40" height="40" rx="20" fill="white"/>
<path d="M16.0345 28.0003C18.8926 28.0003 21.2096 25.683 21.2096 22.8244C21.2096 19.9658 18.8926 17.6484 16.0345 17.6484C13.1764 17.6484 10.8594 19.9658 10.8594 22.8244C10.8594 25.683 13.1764 28.0003 16.0345 28.0003Z" fill="#2F5CB7"/>
<path d="M25.0119 27.347C26.739 27.347 28.139 25.9467 28.139 24.2194C28.139 22.4921 26.739 21.0918 25.0119 21.0918C23.2848 21.0918 21.8848 22.4921 21.8848 24.2194C21.8848 25.9467 23.2848 27.347 25.0119 27.347Z" fill="#2F5CB7"/>
<path d="M17.025 16.9734C18.0937 16.9734 18.9601 16.1069 18.9601 15.038C18.9601 13.9691 18.0937 13.1025 17.025 13.1025C15.9562 13.1025 15.0898 13.9691 15.0898 15.038C15.0898 16.1069 15.9562 16.9734 17.025 16.9734Z" fill="#2F5CB7"/>
<path d="M23.7972 20.4165C26.1209 20.4165 28.0047 18.5324 28.0047 16.2083C28.0047 13.8841 26.1209 12 23.7972 12C21.4734 12 19.5896 13.8841 19.5896 16.2083C19.5896 18.5324 21.4734 20.4165 23.7972 20.4165Z" fill="#2F5CB7"/>
</svg>
