<svg width="120" height="120" viewBox="0 0 120 120" fill="none" xmlns="http://www.w3.org/2000/svg">
<rect width="120" height="120" rx="20" fill="white" fill-opacity="0.6"/>
<path d="M76.25 90H43.75C40.7673 89.9967 37.9078 88.8104 35.7987 86.7013C33.6896 84.5922 32.5033 81.7327 32.5 78.75V41.25C32.5 35.0475 37.5475 30 43.75 30H76.25C82.4525 30 87.5 35.0475 87.5 41.25V78.75C87.5 84.9525 82.4525 90 76.25 90ZM43.75 32.5C38.925 32.5 35 36.425 35 41.25V78.75C35 83.575 38.925 87.5 43.75 87.5H76.25C81.075 87.5 85 83.575 85 78.75V41.25C85 36.425 81.075 32.5 76.25 32.5H43.75ZM72.5 50H47.5C44.7425 50 42.5 47.7575 42.5 45C42.5 42.2425 44.7425 40 47.5 40H72.5C75.2575 40 77.5 42.2425 77.5 45C77.5 47.7575 75.2575 50 72.5 50ZM47.5 42.5C46.8563 42.5288 46.2485 42.8048 45.8032 43.2705C45.3579 43.7361 45.1093 44.3557 45.1093 45C45.1093 45.6443 45.3579 46.2639 45.8032 46.7295C46.2485 47.1952 46.8563 47.4712 47.5 47.5H72.5C73.1437 47.4712 73.7515 47.1952 74.1968 46.7295C74.6421 46.2639 74.8907 45.6443 74.8907 45C74.8907 44.3557 74.6421 43.7361 74.1968 43.2705C73.7515 42.8048 73.1437 42.5288 72.5 42.5H47.5ZM77.5 78.75C77.5 78.4185 77.3683 78.1005 77.1339 77.8661C76.8995 77.6317 76.5815 77.5 76.25 77.5H63.75C63.4185 77.5 63.1005 77.6317 62.8661 77.8661C62.6317 78.1005 62.5 78.4185 62.5 78.75C62.5 79.0815 62.6317 79.3995 62.8661 79.6339C63.1005 79.8683 63.4185 80 63.75 80H76.25C76.5815 80 76.8995 79.8683 77.1339 79.6339C77.3683 79.3995 77.5 79.0815 77.5 78.75ZM47.5 68.75C47.5 68.4185 47.3683 68.1005 47.1339 67.8661C46.8995 67.6317 46.5815 67.5 46.25 67.5H43.75C43.4185 67.5 43.1005 67.6317 42.8661 67.8661C42.6317 68.1005 42.5 68.4185 42.5 68.75C42.5 69.0815 42.6317 69.3995 42.8661 69.6339C43.1005 69.8683 43.4185 70 43.75 70H46.25C46.5815 70 46.8995 69.8683 47.1339 69.6339C47.3683 69.3995 47.5 69.0815 47.5 68.75ZM57.5 68.75C57.5 68.4185 57.3683 68.1005 57.1339 67.8661C56.8995 67.6317 56.5815 67.5 56.25 67.5H53.75C53.4185 67.5 53.1005 67.6317 52.8661 67.8661C52.6317 68.1005 52.5 68.4185 52.5 68.75C52.5 69.0815 52.6317 69.3995 52.8661 69.6339C53.1005 69.8683 53.4185 70 53.75 70H56.25C56.5815 70 56.8995 69.8683 57.1339 69.6339C57.3683 69.3995 57.5 69.0815 57.5 68.75ZM47.5 78.75C47.5 78.4185 47.3683 78.1005 47.1339 77.8661C46.8995 77.6317 46.5815 77.5 46.25 77.5H43.75C43.4185 77.5 43.1005 77.6317 42.8661 77.8661C42.6317 78.1005 42.5 78.4185 42.5 78.75C42.5 79.0815 42.6317 79.3995 42.8661 79.6339C43.1005 79.8683 43.4185 80 43.75 80H46.25C46.5815 80 46.8995 79.8683 47.1339 79.6339C47.3683 79.3995 47.5 79.0815 47.5 78.75ZM57.5 78.75C57.5 78.4185 57.3683 78.1005 57.1339 77.8661C56.8995 77.6317 56.5815 77.5 56.25 77.5H53.75C53.4185 77.5 53.1005 77.6317 52.8661 77.8661C52.6317 78.1005 52.5 78.4185 52.5 78.75C52.5 79.0815 52.6317 79.3995 52.8661 79.6339C53.1005 79.8683 53.4185 80 53.75 80H56.25C56.5815 80 56.8995 79.8683 57.1339 79.6339C57.3683 79.3995 57.5 79.0815 57.5 78.75ZM67.5 68.75C67.5 68.4185 67.3683 68.1005 67.1339 67.8661C66.8995 67.6317 66.5815 67.5 66.25 67.5H63.75C63.4185 67.5 63.1005 67.6317 62.8661 67.8661C62.6317 68.1005 62.5 68.4185 62.5 68.75C62.5 69.0815 62.6317 69.3995 62.8661 69.6339C63.1005 69.8683 63.4185 70 63.75 70H66.25C66.5815 70 66.8995 69.8683 67.1339 69.6339C67.3683 69.3995 67.5 69.0815 67.5 68.75ZM77.5 68.75C77.5 68.4185 77.3683 68.1005 77.1339 67.8661C76.8995 67.6317 76.5815 67.5 76.25 67.5H73.75C73.4185 67.5 73.1005 67.6317 72.8661 67.8661C72.6317 68.1005 72.5 68.4185 72.5 68.75C72.5 69.0815 72.6317 69.3995 72.8661 69.6339C73.1005 69.8683 73.4185 70 73.75 70H76.25C76.5815 70 76.8995 69.8683 77.1339 69.6339C77.3683 69.3995 77.5 69.0815 77.5 68.75ZM47.5 58.75C47.5 58.4185 47.3683 58.1005 47.1339 57.8661C46.8995 57.6317 46.5815 57.5 46.25 57.5H43.75C43.4185 57.5 43.1005 57.6317 42.8661 57.8661C42.6317 58.1005 42.5 58.4185 42.5 58.75C42.5 59.0815 42.6317 59.3995 42.8661 59.6339C43.1005 59.8683 43.4185 60 43.75 60H46.25C46.5815 60 46.8995 59.8683 47.1339 59.6339C47.3683 59.3995 47.5 59.0815 47.5 58.75ZM57.5 58.75C57.5 58.4185 57.3683 58.1005 57.1339 57.8661C56.8995 57.6317 56.5815 57.5 56.25 57.5H53.75C53.4185 57.5 53.1005 57.6317 52.8661 57.8661C52.6317 58.1005 52.5 58.4185 52.5 58.75C52.5 59.0815 52.6317 59.3995 52.8661 59.6339C53.1005 59.8683 53.4185 60 53.75 60H56.25C56.5815 60 56.8995 59.8683 57.1339 59.6339C57.3683 59.3995 57.5 59.0815 57.5 58.75ZM67.5 58.75C67.5 58.4185 67.3683 58.1005 67.1339 57.8661C66.8995 57.6317 66.5815 57.5 66.25 57.5H63.75C63.4185 57.5 63.1005 57.6317 62.8661 57.8661C62.6317 58.1005 62.5 58.4185 62.5 58.75C62.5 59.0815 62.6317 59.3995 62.8661 59.6339C63.1005 59.8683 63.4185 60 63.75 60H66.25C66.5815 60 66.8995 59.8683 67.1339 59.6339C67.3683 59.3995 67.5 59.0815 67.5 58.75ZM77.5 58.75C77.5 58.4185 77.3683 58.1005 77.1339 57.8661C76.8995 57.6317 76.5815 57.5 76.25 57.5H73.75C73.4185 57.5 73.1005 57.6317 72.8661 57.8661C72.6317 58.1005 72.5 58.4185 72.5 58.75C72.5 59.0815 72.6317 59.3995 72.8661 59.6339C73.1005 59.8683 73.4185 60 73.75 60H76.25C76.5815 60 76.8995 59.8683 77.1339 59.6339C77.3683 59.3995 77.5 59.0815 77.5 58.75Z" fill="#2F5CB7"/>
</svg>
