<svg width="16" height="16" viewBox="0 0 16 16" fill="none" xmlns="http://www.w3.org/2000/svg">
<path fill-rule="evenodd" clip-rule="evenodd" d="M12.5397 4.79652C12.7086 4.96946 12.7086 5.24985 12.5397 5.42279L6.89414 11.2038C6.72525 11.3767 6.45143 11.3767 6.28254 11.2038L3.45974 8.31328C3.29085 8.14034 3.29085 7.85995 3.45974 7.68701C3.62863 7.51407 3.90246 7.51407 4.07135 7.68701L6.58834 10.2644L11.9281 4.79652C12.097 4.62358 12.3708 4.62358 12.5397 4.79652Z" fill="white"/>
<path fill-rule="evenodd" clip-rule="evenodd" d="M12.7305 4.6102C13.0006 4.88675 13.0006 5.33256 12.7305 5.60911L7.08493 11.3901C6.81141 11.6702 6.36527 11.6702 6.09176 11.3901L3.26896 8.4996C2.99889 8.22305 2.99889 7.77724 3.26896 7.5007C3.54248 7.22062 3.98861 7.22062 4.26213 7.5007L6.58834 9.88269L11.7373 4.6102C12.0109 4.33013 12.457 4.33013 12.7305 4.6102ZM6.58834 10.2644L4.07135 7.68701C3.90246 7.51407 3.62863 7.51407 3.45974 7.68701C3.29085 7.85995 3.29085 8.14034 3.45974 8.31328L6.28254 11.2038C6.45143 11.3767 6.72525 11.3767 6.89414 11.2038L12.5397 5.42279C12.7086 5.24985 12.7086 4.96946 12.5397 4.79652C12.3708 4.62358 12.097 4.62358 11.9281 4.79652L6.58834 10.2644Z" fill="white"/>
</svg>
