<svg width="25" height="18" viewBox="0 0 25 18" fill="none" xmlns="http://www.w3.org/2000/svg">
<g clip-path="url(#clip0_480_1336)">
<path fill-rule="evenodd" clip-rule="evenodd" d="M4.72254 0.523438H6.90233V2.7032H4.72254V0.523438ZM4.72254 4.64215V6.82036H2.54434V11.1799H4.72254V13.1176V15.2972H6.90233V13.1176H17.5599V15.2967H13.4426V17.4764H17.5599V15.2972H19.7398V11.1799H21.9179V6.82036H19.7398H19.7387V4.64215H17.5615V2.704H15.3818V4.64215H9.0805V2.704H6.90076V4.64215H4.72254ZM17.5599 8.99853V6.82194H15.3784V8.99853H17.5599ZM9.08128 6.82194V8.99853H6.90233V6.82194H9.08128ZM2.54354 8.99853H0.36377V15.2957H2.54354V8.99853ZM11.0207 17.4764V15.2967H6.9033V17.4764H11.0207ZM19.7398 0.523438H17.5599V2.7032H19.7398V0.523438ZM24.1009 8.99853H21.9211V15.2957H24.1009V8.99853Z" fill="#8A93A6"/>
</g>
<defs>
<clipPath id="clip0_480_1336">
<rect width="24.218" height="16.9526" fill="white" transform="translate(0.36377 0.523438)"/>
</clipPath>
</defs>
</svg>
