<svg width="32" height="32" viewBox="0 0 32 32" fill="none" xmlns="http://www.w3.org/2000/svg">
<g clip-path="url(#clip0_401_8806)">
<path d="M30.6667 14.6667H17.3333V1.33331C17.3333 0.596938 16.7364 0 16 0C15.2636 0 14.6667 0.596938 14.6667 1.33331V14.6666H1.33331C0.596938 14.6667 0 15.2636 0 16C0 16.7364 0.596938 17.3333 1.33331 17.3333H14.6666V30.6666C14.6666 31.403 15.2636 31.9999 15.9999 31.9999C16.7363 31.9999 17.3333 31.403 17.3333 30.6666V17.3333H30.6666C31.4029 17.3333 31.9999 16.7364 31.9999 16C32 15.2636 31.4031 14.6667 30.6667 14.6667Z" fill="#15284E"/>
</g>
<defs>
<clipPath id="clip0_401_8806">
<rect width="32" height="32" fill="white"/>
</clipPath>
</defs>
</svg>
