<svg width="120" height="120" viewBox="0 0 120 120" fill="none" xmlns="http://www.w3.org/2000/svg">
<rect width="120" height="120" rx="20" fill="#DAE7FC"/>
<g clip-path="url(#clip0_401_8855)">
<path d="M87.5275 75.6925L44.325 32.49C41.8775 30.0475 38.375 29.3425 35.18 30.6725C33.6363 31.292 32.3157 32.3634 31.3914 33.7463C30.4671 35.1293 29.9821 36.7592 30 38.4225L30 78.4425C30.0033 81.5113 31.2239 84.4536 33.3939 86.6236C35.5639 88.7936 38.5061 90.0142 41.575 90.0175H81.595C83.2582 90.0351 84.888 89.5503 86.2712 88.6265C87.6544 87.7027 88.7266 86.383 89.3475 84.84C89.9997 83.3096 90.175 81.6179 89.8502 79.9863C89.5255 78.3547 88.716 76.8566 87.5275 75.6925ZM87.0375 83.88C86.3075 85.6375 84.4975 87.515 81.595 87.515H41.575C39.169 87.5123 36.8622 86.5554 35.1609 84.854C33.4596 83.1527 32.5026 80.846 32.5 78.44V38.4225C32.5 35.52 34.3775 33.7075 36.1375 32.98C36.81 32.7025 37.6075 32.52 38.45 32.52C39.81 32.52 41.29 32.99 42.56 34.255L49.0625 40.7575L43.6625 46.1575C43.4281 46.3922 43.2966 46.7104 43.2968 47.0421C43.297 47.3738 43.429 47.6918 43.6637 47.9262C43.8985 48.1606 44.2167 48.2921 44.5484 48.2919C44.8801 48.2917 45.1981 48.1597 45.4325 47.925L50.8325 42.525L56.265 47.9575L50.865 53.3575C50.6306 53.5922 50.4991 53.9104 50.4993 54.2421C50.4995 54.5738 50.6315 54.8918 50.8662 55.1262C51.101 55.3606 51.4192 55.4921 51.7509 55.4919C52.0826 55.4917 52.4006 55.3597 52.635 55.125L58.035 49.725L63.34 55.03L57.94 60.43C57.7056 60.6647 57.5741 60.9829 57.5743 61.3146C57.5745 61.6463 57.7065 61.9643 57.9412 62.1987C58.176 62.4331 58.4942 62.5646 58.8259 62.5644C59.1576 62.5642 59.4756 62.4322 59.71 62.1975L65.11 56.7975L70.4125 62.1L65.0125 67.5C64.7781 67.7347 64.6466 68.0529 64.6468 68.3846C64.647 68.7163 64.779 69.0343 65.0137 69.2687C65.2485 69.5031 65.5667 69.6347 65.8984 69.6344C66.2301 69.6342 66.5481 69.5022 66.7825 69.2675L72.1825 63.8675L77.485 69.17L72.085 74.57C71.8506 74.8047 71.7191 75.1229 71.7193 75.4546C71.7195 75.7863 71.8515 76.1043 72.0862 76.3387C72.321 76.5731 72.6392 76.7047 72.9709 76.7044C73.3026 76.7042 73.6206 76.5722 73.855 76.3375L79.255 70.9375L85.775 77.4575C87.8275 79.51 87.78 82.12 87.0525 83.8775L87.0375 83.88ZM47.135 60.365C46.9593 60.1921 46.7365 60.0748 46.4945 60.0278C46.2526 59.9807 46.0021 60.006 45.7744 60.1004C45.5467 60.1948 45.3518 60.3541 45.2141 60.5586C45.0764 60.763 45.0019 61.0035 45 61.25V73.75C45 74.0815 45.1317 74.3994 45.3661 74.6339C45.6005 74.8683 45.9185 75 46.25 75H58.75C58.9975 75.0004 59.2397 74.9273 59.4456 74.79C59.6516 74.6527 59.8122 74.4573 59.907 74.2286C60.0017 73.9999 60.0265 73.7483 59.9781 73.5055C59.9297 73.2627 59.8103 73.0398 59.635 72.865L47.135 60.365ZM47.5 72.5V64.2675L55.7325 72.5H47.5Z" fill="#2F5CB7"/>
</g>
<defs>
<clipPath id="clip0_401_8855">
<rect width="60" height="60" fill="white" transform="translate(30 30)"/>
</clipPath>
</defs>
</svg>
